<svg width="88" height="32" viewBox="0 0 88 32" fill="none" xmlns="http://www.w3.org/2000/svg">
<path d="M35.543 18.6063C35.543 17.2772 35.8027 16.0983 36.3221 15.0698C36.8572 14.0413 37.5813 13.2502 38.4941 12.6963C39.407 12.1425 40.4223 11.8656 41.5398 11.8656C42.3897 11.8656 43.2003 12.0555 43.9715 12.4353C44.7428 12.7992 45.3566 13.2897 45.8131 13.9068V7.66455H49.1656V25.2283H45.8131V23.2821C45.4038 23.9308 44.8293 24.453 44.0896 24.8486C43.3498 25.2442 42.492 25.442 41.5162 25.442C40.4144 25.442 39.407 25.1571 38.4941 24.5875C37.5813 24.0179 36.8572 23.2188 36.3221 22.1903C35.8027 21.1459 35.543 19.9513 35.543 18.6063ZM45.8367 18.6538C45.8367 17.8468 45.6793 17.1585 45.3645 16.5889C45.0497 16.0034 44.6247 15.5603 44.0896 15.2597C43.5544 14.9432 42.9799 14.785 42.3661 14.785C41.7523 14.785 41.1856 14.9353 40.6662 15.236C40.1468 15.5366 39.7218 15.9797 39.3913 16.5651C39.0765 17.1348 38.9191 17.8152 38.9191 18.6063C38.9191 19.3975 39.0765 20.0937 39.3913 20.695C39.7218 21.2804 40.1468 21.7314 40.6662 22.0479C41.2014 22.3643 41.768 22.5226 42.3661 22.5226C42.9799 22.5226 43.5544 22.3723 44.0896 22.0716C44.6247 21.7551 45.0497 21.3121 45.3645 20.7425C45.6793 20.157 45.8367 19.4608 45.8367 18.6538ZM64.9068 12.0792L56.8088 31.4469H53.291L56.1241 24.8961L50.8828 12.0792H54.5895L57.9656 21.2646L61.389 12.0792H64.9068ZM70.537 14.8087V21.1697C70.537 21.6127 70.6393 21.9371 70.8439 22.1428C71.0643 22.3327 71.4263 22.4276 71.93 22.4276H73.4646V25.2283H71.387C68.601 25.2283 67.2081 23.8675 67.2081 21.1459V14.8087H65.6499V12.0792H67.2081V8.82756H70.537V12.0792H73.4646V14.8087H70.537ZM88.0008 18.369C88.0008 18.8437 87.9693 19.2709 87.9063 19.6507H78.3445C78.4232 20.6 78.7538 21.3437 79.3361 21.8817C79.9185 22.4197 80.6346 22.6887 81.4846 22.6887C82.7123 22.6887 83.5858 22.1586 84.1052 21.0985H87.6702C87.2925 22.3643 86.5685 23.4087 85.4982 24.2315C84.4279 25.0385 83.1136 25.442 81.5554 25.442C80.2962 25.442 79.163 25.1651 78.1556 24.6112C77.164 24.0416 76.3849 23.2425 75.8183 22.214C75.2674 21.1855 74.992 19.9988 74.992 18.6538C74.992 17.293 75.2674 16.0983 75.8183 15.0698C76.3692 14.0413 77.1404 13.2502 78.132 12.6963C79.1236 12.1425 80.2648 11.8656 81.5554 11.8656C82.7988 11.8656 83.9085 12.1346 84.8843 12.6726C85.8759 13.2106 86.6393 13.978 87.1744 14.9749C87.7253 15.9559 88.0008 17.0873 88.0008 18.369ZM84.5774 17.4196C84.5617 16.5651 84.2548 15.8847 83.6566 15.3784C83.0585 14.8562 82.3267 14.5951 81.461 14.5951C80.6425 14.5951 79.95 14.8483 79.3833 15.3546C78.8325 15.8452 78.494 16.5335 78.3681 17.4196H84.5774Z" fill="white"/>
<path d="M30.8273 17.3169H17.7109V30.5029H30.8273V17.3169Z" fill="#FFFFFF"/>
<path fill-rule="evenodd" clip-rule="evenodd" d="M25.5812 14.5215V0.184035C25.3634 0.17822 25.1447 0.175293 24.9254 0.175293C11.5241 0.175293 0.660156 11.0969 0.660156 24.5694C0.660156 24.7899 0.663065 25.0097 0.668847 25.2287H14.9012V14.5215H25.5812Z" fill="#FFFFFF"/>
</svg>
